<?xml version="1.0" encoding="UTF-8"?>
<svg xmlns="http://www.w3.org/2000/svg" id="Layer_1" data-name="Layer 1" viewBox="0 0 95 114.3">
  <defs>
    <style>
      .cls-1 {
        fill: #fbd05c;
      }

      .cls-2 {
        fill: #002344;
      }

      .cls-3 {
        fill: #ededed;
      }
    </style>
  </defs>
  <g>
    <path class="cls-1" d="M47.5,0C21.27,0,0,21.27,0,47.5s21.27,47.5,47.5,47.5,47.5-21.27,47.5-47.5S73.73,0,47.5,0ZM47.5,80.27c-18.1,0-32.77-14.67-32.77-32.77S29.4,14.73,47.5,14.73s32.77,14.67,32.77,32.77-14.67,32.77-32.77,32.77Z"></path>
    <g>
      <path class="cls-2" d="M26.82,83.37l.95,1.12c-.6.54-1.21.84-1.84.9-.63.05-1.26-.13-1.91-.54-.8-.51-1.29-1.2-1.46-2.08-.17-.88.05-1.79.65-2.74.64-1.01,1.39-1.62,2.27-1.85s1.73-.07,2.58.46c.74.47,1.2,1.07,1.39,1.8.11.43.08.93-.09,1.5l-1.39-.48c.13-.36.13-.7.02-1.03s-.33-.59-.65-.8c-.45-.28-.91-.35-1.4-.21s-.95.58-1.41,1.3c-.48.76-.69,1.4-.62,1.89.07.5.32.89.76,1.17.32.21.67.28,1.03.22s.74-.28,1.12-.65Z"></path>
      <path class="cls-2" d="M28.43,87.24l2.71-6.62,4.91,2.01-.46,1.12-3.57-1.46-.6,1.47,3.33,1.36-.46,1.12-3.33-1.36-.74,1.8,3.7,1.52-.46,1.12-5.04-2.06Z"></path>
      <path class="cls-2" d="M35.42,89.91l1.5-7,2.97.64c.75.16,1.28.34,1.59.54.31.2.54.48.67.85.13.37.16.75.07,1.17-.11.53-.36.93-.74,1.2-.38.28-.89.39-1.52.35.27.24.48.49.63.75.15.26.34.69.56,1.31l.56,1.55-1.69-.36-.69-1.74c-.25-.62-.42-1.02-.52-1.19-.1-.17-.22-.3-.36-.38-.14-.08-.37-.16-.69-.23l-.29-.06-.63,2.92-1.41-.3ZM37.7,86.18l1.05.22c.68.15,1.11.21,1.29.19.18-.02.33-.09.46-.21.13-.12.21-.28.26-.49.05-.24.03-.44-.07-.61s-.25-.3-.47-.39c-.11-.04-.45-.12-1.03-.25l-1.1-.24-.38,1.78Z"></path>
      <path class="cls-2" d="M44.84,91.42l.26-5.94-2.12-.09.05-1.21,5.68.25-.05,1.21-2.12-.09-.26,5.94-1.44-.06Z"></path>
      <path class="cls-2" d="M49.8,91.44l-.48-7.14,1.44-.1.48,7.14-1.44.1Z"></path>
      <path class="cls-2" d="M53.11,91.2l-1.28-7.04,4.83-.87.22,1.19-3.41.62.3,1.67,2.94-.53.22,1.19-2.94.53.54,2.99-1.42.26Z"></path>
      <path class="cls-2" d="M59.52,89.84l-2.06-6.85,1.38-.42,2.06,6.85-1.38.42Z"></path>
      <path class="cls-2" d="M62.73,88.87l-2.87-6.56,4.86-2.13.49,1.11-3.54,1.55.64,1.45,3.29-1.44.48,1.1-3.29,1.44.78,1.79,3.66-1.6.48,1.1-4.99,2.18Z"></path>
      <path class="cls-2" d="M65.53,79.76l2.2-1.47c.5-.33.9-.54,1.21-.64.42-.13.84-.15,1.26-.05.42.1.83.29,1.21.58s.76.72,1.13,1.28c.33.49.55.95.66,1.39.14.53.16,1.02.06,1.48-.07.34-.25.69-.53,1.04-.21.26-.54.54-.98.84l-2.26,1.51-3.98-5.95ZM67.4,79.97l2.63,3.94.9-.6c.34-.22.57-.4.69-.54.16-.18.27-.37.32-.57.05-.2.03-.46-.07-.78-.1-.32-.3-.71-.61-1.17s-.58-.79-.83-.98c-.25-.19-.49-.31-.73-.35-.24-.04-.49,0-.74.09-.19.07-.54.27-1.02.6l-.54.36Z"></path>
    </g>
    <g>
      <path class="cls-2" d="M21.45,23.61l-1.17,1.67-2.2-.55-2.14,3.05,1.29,1.84-1.14,1.63-5.54-8.31,1.14-1.63,9.76,2.29ZM16.45,24.33l-3.56-.93,2.11,3.01,1.46-2.08Z"></path>
      <path class="cls-2" d="M19.23,21.71l1.24-1.35c.49.38.96.57,1.4.56.44-.01.88-.21,1.3-.59.45-.4.71-.8.76-1.2.06-.4-.03-.72-.26-.98-.15-.16-.32-.26-.52-.29s-.46.02-.77.15c-.21.09-.68.32-1.39.7-.92.49-1.65.73-2.19.73-.77,0-1.4-.27-1.89-.82-.32-.35-.51-.77-.59-1.26-.07-.49,0-.98.24-1.48s.62-.99,1.15-1.46c.87-.78,1.7-1.17,2.48-1.19.78-.01,1.47.29,2.06.91l-1.34,1.31c-.38-.3-.74-.44-1.07-.42-.34.02-.7.21-1.1.56-.41.36-.65.73-.73,1.11-.05.24,0,.45.16.63.15.16.34.24.58.23.31,0,.88-.24,1.7-.69.82-.45,1.48-.73,1.96-.85.48-.12.95-.11,1.4.02s.87.42,1.27.86c.36.4.58.87.67,1.41s0,1.08-.24,1.61c-.25.53-.68,1.06-1.28,1.6-.88.78-1.73,1.18-2.56,1.2s-1.64-.32-2.43-1.02Z"></path>
      <path class="cls-2" d="M28.82,15.19l1.48-.91c.19.3.4.49.63.56.23.08.48.05.75-.07.33-.16.54-.45.63-.86.09-.42-.06-1.12-.46-2.12-.18.66-.58,1.14-1.18,1.43-.66.31-1.35.33-2.08.05s-1.28-.83-1.67-1.65c-.4-.85-.48-1.66-.22-2.42.26-.76.78-1.33,1.56-1.7.85-.4,1.71-.41,2.57,0,.86.4,1.65,1.35,2.37,2.86.73,1.54.97,2.78.73,3.73-.25.95-.83,1.64-1.74,2.08-.66.31-1.27.39-1.84.23s-1.08-.56-1.52-1.2ZM30.79,9.93c-.25-.52-.56-.87-.93-1.04-.38-.17-.72-.19-1.03-.04-.3.14-.49.38-.57.71s0,.76.25,1.3c.26.54.55.89.89,1.04s.66.15.98,0c.31-.15.51-.39.61-.74.1-.35.03-.75-.19-1.23Z"></path>
      <path class="cls-2" d="M39.93,13.24l-1.72.46-1.73-6.5c-.47.76-1.1,1.39-1.88,1.9l-.42-1.56c.41-.27.83-.68,1.24-1.23.42-.55.65-1.13.7-1.73l1.4-.37,2.4,9.03Z"></path>
      <path class="cls-2" d="M43.98,3.25c.9-.07,1.63.2,2.18.8.66.71,1.06,1.95,1.2,3.71.14,1.76-.07,3.04-.62,3.86-.45.67-1.13,1.04-2.03,1.11-.9.07-1.66-.22-2.26-.87-.61-.65-.98-1.87-1.12-3.65-.14-1.75.07-3.03.62-3.84.45-.67,1.13-1.04,2.03-1.11ZM44.09,4.73c-.22.02-.4.1-.56.25-.16.15-.27.41-.33.77-.09.47-.09,1.25,0,2.34.08,1.09.2,1.83.34,2.23.14.4.3.66.48.78.18.12.37.17.59.16.21-.02.4-.1.56-.25.16-.15.27-.41.34-.77.09-.47.09-1.24,0-2.33s-.2-1.83-.34-2.23c-.14-.4-.3-.66-.48-.78-.18-.12-.37-.18-.59-.16Z"></path>
      <path class="cls-2" d="M52.05,3.34c.9.09,1.56.48,2,1.18.53.82.7,2.11.52,3.86-.18,1.75-.62,2.98-1.3,3.68-.57.58-1.3.82-2.2.73-.9-.09-1.59-.51-2.07-1.26-.48-.75-.63-2.01-.45-3.79.18-1.74.61-2.97,1.3-3.67.57-.58,1.3-.82,2.2-.73ZM51.9,4.81c-.21-.02-.41.03-.6.15-.18.12-.34.35-.47.7-.17.45-.31,1.21-.42,2.3-.11,1.09-.13,1.84-.07,2.26.07.42.18.7.33.85s.34.24.55.26c.21.02.41-.03.6-.15.18-.12.34-.35.47-.69.17-.44.31-1.21.42-2.29.11-1.09.13-1.84.07-2.25-.07-.42-.18-.7-.33-.86s-.34-.24-.55-.26Z"></path>
      <path class="cls-2" d="M55.21,13.3l.44-1.73,1.73.44-.44,1.73-1.73-.44ZM56.42,8.49l.44-1.73,1.73.44-.44,1.73-1.73-.44Z"></path>
      <path class="cls-2" d="M64.21,14.68l-.63,1.53-5.78-2.38c.3-.55.72-1.02,1.24-1.41.53-.39,1.43-.82,2.71-1.3,1.03-.39,1.68-.67,1.95-.84.37-.25.62-.54.76-.87.15-.37.17-.69.05-.97s-.35-.49-.7-.63c-.34-.14-.66-.15-.95-.03s-.55.42-.78.89l-1.58-.84c.47-.87,1.05-1.39,1.73-1.57.68-.18,1.41-.11,2.18.21.85.35,1.42.85,1.72,1.51.3.66.3,1.33.02,2.01-.16.39-.38.73-.66,1.02s-.65.57-1.11.83c-.3.17-.82.39-1.53.65-.72.26-1.18.44-1.38.54-.2.1-.38.21-.53.32l3.27,1.35Z"></path>
      <path class="cls-2" d="M71.5,10.16c.76.49,1.17,1.14,1.25,1.96.09.97-.34,2.19-1.29,3.68-.95,1.48-1.9,2.38-2.83,2.69-.77.26-1.53.15-2.29-.34-.76-.49-1.19-1.18-1.27-2.06-.09-.89.35-2.08,1.32-3.58.95-1.47,1.89-2.37,2.82-2.68.77-.26,1.53-.15,2.29.34ZM70.7,11.4c-.18-.12-.38-.16-.6-.14s-.46.16-.73.41c-.35.32-.83.94-1.42,1.86-.59.92-.95,1.58-1.08,1.98s-.16.71-.09.91c.07.2.19.37.37.48.18.12.38.16.6.14.22-.02.46-.16.73-.41.35-.32.82-.94,1.42-1.85.59-.92.95-1.58,1.08-1.98s.16-.71.09-.91c-.07-.21-.19-.37-.37-.48Z"></path>
      <path class="cls-2" d="M72.6,23l-1.3-1.22,4.61-4.9c-.89,0-1.76-.2-2.6-.59l1.11-1.18c.44.21,1.01.34,1.7.41.69.06,1.3-.04,1.84-.31l1.05.99-6.4,6.81Z"></path>
      <path class="cls-2" d="M83.16,24.98l-1.18-1.28c.26-.24.41-.49.44-.73.03-.24-.04-.48-.21-.71-.22-.3-.55-.46-.98-.47-.43,0-1.09.28-1.99.86.69.05,1.22.34,1.62.87.44.6.59,1.28.45,2.05-.14.76-.57,1.41-1.3,1.94-.77.56-1.55.79-2.34.68-.79-.11-1.45-.52-1.97-1.22-.56-.76-.72-1.6-.49-2.52.23-.92,1.01-1.87,2.35-2.86,1.37-1.01,2.55-1.49,3.53-1.42s1.77.5,2.37,1.31c.42.57.61,1.16.56,1.77-.04.61-.33,1.19-.86,1.73ZM77.63,24.03c-.47.34-.75.72-.84,1.12-.1.4-.04.74.16,1.02.2.27.46.41.8.44.34.02.74-.14,1.22-.49.49-.36.77-.72.86-1.07.09-.36.02-.68-.19-.97-.2-.28-.48-.43-.84-.46-.36-.03-.75.11-1.17.42Z"></path>
    </g>
    <g>
      <path class="cls-2" d="M18.77,49.56c1.03,15.38,13.47,27.53,28.71,27.53s28.76-13.23,28.76-29.59-12.89-29.59-28.76-29.59-27.68,12.15-28.71,27.53c0-.05,0,4.12,0,4.12Z"></path>
      <path class="cls-1" d="M47.23,77.04h.2c3.04,0,5.98-.49,8.72-1.37,10.73-4.36,10.48-16.36,7.25-22.05-1.32-2.5-9.01-16.17-9.01-16.17-3.97-6.66,2.74-16.07,13.23-11.17-1.96-1.96-4.16-3.63-6.61-5-1.03-.29-1.91-.44-2.5-.49-2.89-.29-6.91,1.32-9.06,3.43-2.11,2.11-3.28,5.05-3.28,8.23,0,2.4.69,4.95,2.11,7.4l8.43,14.94s1.81,3.28,1.81,7.54c0,2.6-.69,5.59-2.79,8.38-1.71,2.35-4.41,4.51-8.48,6.32ZM67.66,26.38h0Z"></path>
      <path class="cls-1" d="M27.09,68.37l.29.29c.54.49,1.42,1.37,2.69,2.4,1.37,1.08,2.84,2.01,4.41,2.84.78.1,1.57.15,2.3.15,7.69,0,13.13-5.29,13.13-11.76,0-2.06-.59-4.31-1.81-6.52-6.42-11.37-7.3-12.69-8.67-15.24-1.18-2.06-1.81-4.61-1.81-7.25,0-3.87,1.42-8.03,4.9-11.22,1.86-1.71,4.31-3.14,7.45-4.07-.78-.05-1.62-.1-2.4-.1-1.32,0-2.6.1-3.87.24-2.35.54-4.7,1.57-7.01,3.18-7.2,5.34-7.06,13.87-4.7,18.42,1.67,3.09,9.5,16.76,9.65,17,3.53,6.47-1.62,17.64-14.55,11.61h0Z"></path>
      <path class="cls-1" d="M36.7,74.89c2.65,1.13,5.49,1.81,8.48,2.06,4.95-1.91,7.99-4.31,9.85-6.76,2.01-2.65,2.65-5.44,2.65-7.84,0-3.53-1.32-6.37-1.67-7.01l-.05-.15-8.43-14.84c-1.52-2.6-2.2-5.29-2.2-7.89,0-3.43,1.27-6.57,3.58-8.87,2.25-2.2,5.44-3.63,9.31-3.67-1.57-.64-3.18-1.13-4.85-1.52h-.54c-3.18,0-7.5,2.16-9.8,4.26-3.23,2.99-4.61,6.91-4.61,10.53,0,2.5.64,4.9,1.71,6.81,1.37,2.55,2.25,3.87,8.67,15.24,1.32,2.35,1.96,4.7,1.96,6.96,0,3.48-1.47,6.66-3.97,8.97-2.5,2.3-5.98,3.67-9.99,3.67l-.1.05h0Z"></path>
    </g>
  </g>
  <g>
    <g id="Group">
      <path class="cls-3" d="M16.13,100.99c-.15-.98-1.05-1.41-2.35-1.41-1.07,0-2.13.28-2.13,1.18,0,.85,1.51.98,3.05,1.23,1.51.25,3.03.64,3.03,2,0,1.48-1.98,2.07-3.71,2.07-2.13,0-3.92-.75-3.92-2.44h1.2c0,1.16,1.33,1.67,2.77,1.67,1.15,0,2.41-.26,2.41-1.26s-1.51-1.12-3.03-1.36c-1.51-.25-3.05-.56-3.05-1.84,0-1.41,1.72-2.02,3.44-2.02,1.94,0,3.41.67,3.49,2.2h-1.21"></path>
      <path class="cls-3" d="M20.4,98.79h1.74l3.02,5.77,3.03-5.77h1.74v6.87h-1.21v-5.71h-.03l-2.98,5.71h-1.08l-2.98-5.71h-.03v5.71h-1.21l.02-6.87"></path>
      <path class="cls-3" d="M33.37,98.79h1.15v6.87h-1.15v-6.87Z"></path>
      <path class="cls-3" d="M40.37,99.57h-3.18v-.77h7.63v.77h-3.18v6.1h-1.26v-6.1"></path>
      <path class="cls-3" d="M47.1,98.79h1.28v2.95h5.07v-2.95h1.28v6.87h-1.28v-3.15h-5.07v3.15h-1.28v-6.87"></path>
      <path class="cls-3" d="M58.17,98.79h6.45v.77h-5.2v2.18h4.85v.77h-4.85v2.38h5.25v.77h-6.48v-6.87"></path>
      <path class="cls-3" d="M67.32,98.79h4.43c1.77,0,2.87.71,2.87,1.8,0,.82-.51,1.51-1.64,1.74v.02c1.1.15,1.31.74,1.41,1.41.08.67.03,1.43.56,1.9h-1.39c-.36-.28-.16-1.02-.34-1.69-.13-.67-.36-1.25-1.57-1.25h-3.07v2.94h-1.25v-6.87h0ZM71.17,101.85c1.21,0,2.25-.21,2.25-1.16,0-.64-.52-1.12-1.74-1.12h-3.21v2.3h2.71v-.02Z"></path>
      <path class="cls-3" d="M83.28,100.99c-.15-.98-1.05-1.41-2.35-1.41-1.07,0-2.13.28-2.13,1.18,0,.85,1.51.98,3.05,1.23,1.51.25,3.03.64,3.03,2,0,1.48-1.98,2.07-3.71,2.07-2.13,0-3.92-.75-3.92-2.44h1.2c0,1.16,1.33,1.67,2.77,1.67,1.15,0,2.41-.26,2.41-1.26s-1.51-1.12-3.03-1.36c-1.51-.25-3.05-.56-3.05-1.84,0-1.41,1.72-2.02,3.44-2.02,1.94,0,3.41.67,3.49,2.2h-1.21"></path>
    </g>
    <g>
      <path class="cls-3" d="M10.37,113.37c.25.21.48.37.69.46l-.16.46c-.3-.13-.59-.34-.88-.62-.3.21-.64.31-1.01.31-.6,0-1.09-.26-1.46-.79-.34-.47-.5-1.07-.5-1.8,0-.54.09-1.01.27-1.41s.42-.69.71-.89c.29-.2.62-.3.99-.3s.69.1.99.31c.3.2.53.5.71.89s.26.85.26,1.39c0,.42-.05.79-.16,1.13-.11.34-.26.62-.45.85ZM9.17,112.52c.31.1.57.26.78.48.32-.36.48-.9.48-1.61,0-.43-.06-.8-.18-1.1s-.29-.53-.51-.68c-.22-.16-.45-.23-.71-.23-.41,0-.74.17-1.01.51s-.4.85-.4,1.52.14,1.16.41,1.51c.27.34.61.51,1.01.51.19,0,.37-.04.55-.13-.17-.13-.35-.23-.54-.29l.13-.48Z"></path>
      <path class="cls-3" d="M15.09,108.9h.54v2.9c0,.48-.05.88-.14,1.19-.09.31-.27.56-.52.74-.25.18-.57.27-.95.27-.54,0-.95-.16-1.22-.49-.27-.32-.4-.89-.4-1.71v-2.9h.54v2.89c0,.45.04.78.11.98s.19.36.35.46c.16.11.36.16.59.16.39,0,.67-.11.84-.33.17-.22.26-.64.26-1.28v-2.89Z"></path>
      <path class="cls-3" d="M16.8,113.91l1.58-5.01h.58l1.68,5.01h-.62l-.48-1.52h-1.73l-.45,1.52h-.57ZM17.98,111.85h1.4l-.43-1.39c-.13-.43-.23-.77-.29-1.04-.05.32-.13.64-.23.96l-.46,1.47Z"></path>
      <path class="cls-3" d="M21.75,113.91v-5.01h.54v4.42h2.02v.59h-2.57Z"></path>
      <path class="cls-3" d="M25.78,113.91v-5.01h.54v5.01h-.54Z"></path>
      <path class="cls-3" d="M29.02,113.91v-4.42h-1.35v-.59h3.26v.59h-1.36v4.42h-.54Z"></path>
      <path class="cls-3" d="M33.33,113.91v-2.12l-1.58-2.89h.66l.81,1.51c.16.3.3.58.42.85.12-.26.27-.56.45-.89l.8-1.47h.63l-1.64,2.89v2.12h-.54Z"></path>
      <path class="cls-3" d="M38.14,113.91l1.58-5.01h.58l1.68,5.01h-.62l-.48-1.52h-1.73l-.45,1.52h-.57ZM39.32,111.85h1.4l-.43-1.39c-.13-.43-.23-.77-.29-1.04-.05.32-.13.64-.23.96l-.46,1.47Z"></path>
      <path class="cls-3" d="M42.93,112.3l.51-.05c.03.28.09.49.19.64.1.15.23.28.42.37.18.09.38.14.61.14.32,0,.57-.08.75-.24.18-.16.27-.36.27-.62,0-.15-.03-.28-.1-.39-.07-.11-.16-.2-.29-.27-.13-.07-.41-.17-.85-.3-.39-.12-.66-.23-.83-.35-.16-.12-.29-.26-.38-.44s-.14-.38-.14-.61c0-.41.13-.74.39-.99.26-.26.62-.39,1.06-.39.31,0,.57.06.8.18.23.12.41.29.53.52.13.22.19.49.2.8l-.52.05c-.03-.33-.12-.57-.29-.72-.17-.16-.4-.24-.71-.24s-.54.07-.7.21-.24.32-.24.54c0,.2.06.36.18.47s.39.22.8.34c.41.11.69.21.85.29.25.13.44.3.57.5.13.21.19.46.19.75s-.07.55-.2.78-.32.42-.55.54c-.23.12-.51.18-.84.18-.51,0-.91-.15-1.22-.46-.3-.3-.46-.72-.47-1.24Z"></path>
      <path class="cls-3" d="M47.46,112.3l.51-.05c.03.28.09.49.19.64.1.15.24.28.42.37.18.09.38.14.61.14.32,0,.58-.08.75-.24s.27-.36.27-.62c0-.15-.03-.28-.1-.39-.07-.11-.16-.2-.29-.27-.13-.07-.42-.17-.85-.3-.39-.12-.66-.23-.83-.35-.16-.12-.29-.26-.38-.44s-.14-.38-.14-.61c0-.41.13-.74.39-.99.26-.26.62-.39,1.06-.39.3,0,.57.06.8.18.23.12.41.29.53.52.13.22.19.49.2.8l-.52.05c-.03-.33-.12-.57-.29-.72-.17-.16-.4-.24-.71-.24s-.54.07-.7.21-.24.32-.24.54c0,.2.06.36.18.47.12.11.38.22.8.34.41.11.69.21.85.29.25.13.44.3.57.5.13.21.19.46.19.75s-.07.55-.2.78-.32.42-.55.54c-.23.12-.51.18-.84.18-.51,0-.91-.15-1.21-.46-.3-.3-.46-.72-.47-1.24Z"></path>
      <path class="cls-3" d="M52.18,113.91v-5.01h2.97v.59h-2.43v1.53h2.27v.59h-2.27v1.71h2.52v.59h-3.07Z"></path>
      <path class="cls-3" d="M56.52,112.3l.51-.05c.03.28.09.49.19.64.1.15.24.28.42.37.18.09.38.14.61.14.32,0,.58-.08.75-.24.18-.16.27-.36.27-.62,0-.15-.03-.28-.1-.39-.07-.11-.16-.2-.29-.27s-.41-.17-.85-.3c-.39-.12-.66-.23-.83-.35-.16-.12-.29-.26-.38-.44-.09-.18-.14-.38-.14-.61,0-.41.13-.74.39-.99.26-.26.62-.39,1.06-.39.31,0,.57.06.8.18.23.12.41.29.53.52.13.22.19.49.2.8l-.52.05c-.03-.33-.12-.57-.29-.72-.17-.16-.4-.24-.71-.24s-.54.07-.7.21c-.16.14-.24.32-.24.54,0,.2.06.36.18.47s.39.22.8.34c.41.11.69.21.85.29.25.13.44.3.57.5.13.21.19.46.19.75s-.07.55-.2.78c-.13.24-.32.42-.55.54-.23.12-.51.18-.84.18-.51,0-.91-.15-1.21-.46-.3-.3-.46-.72-.47-1.24Z"></path>
      <path class="cls-3" d="M61.04,112.3l.51-.05c.03.28.09.49.19.64.1.15.23.28.41.37.18.09.38.14.61.14.32,0,.57-.08.75-.24.18-.16.27-.36.27-.62,0-.15-.03-.28-.1-.39-.06-.11-.16-.2-.29-.27-.13-.07-.42-.17-.85-.3-.39-.12-.66-.23-.83-.35-.16-.12-.29-.26-.38-.44-.09-.18-.14-.38-.14-.61,0-.41.13-.74.39-.99.26-.26.62-.39,1.06-.39.3,0,.57.06.8.18.23.12.41.29.53.52.13.22.2.49.2.8l-.52.05c-.03-.33-.12-.57-.29-.72s-.4-.24-.71-.24-.54.07-.71.21c-.16.14-.24.32-.24.54,0,.2.06.36.18.47s.38.22.8.34c.41.11.69.21.85.29.25.13.44.3.57.5.13.21.19.46.19.75s-.07.55-.2.78c-.13.24-.32.42-.55.54-.23.12-.51.18-.83.18-.51,0-.91-.15-1.22-.46-.3-.3-.46-.72-.47-1.24Z"></path>
      <path class="cls-3" d="M65.74,113.91v-5.01h.82l.98,3.55.2.74c.05-.19.12-.45.22-.8l.99-3.49h.73v5.01h-.52v-4.19l-1.2,4.19h-.49l-1.19-4.26v4.26h-.52Z"></path>
      <path class="cls-3" d="M71.25,113.91v-5.01h2.97v.59h-2.43v1.53h2.27v.59h-2.27v1.71h2.52v.59h-3.07Z"></path>
      <path class="cls-3" d="M75.75,113.91v-5.01h.56l2.16,3.94v-3.94h.52v5.01h-.56l-2.16-3.94v3.94h-.52Z"></path>
      <path class="cls-3" d="M81.66,113.91v-4.42h-1.35v-.59h3.26v.59h-1.36v4.42h-.54Z"></path>
      <path class="cls-3" d="M84.63,112.3l.51-.05c.03.28.09.49.19.64.1.15.24.28.42.37.18.09.38.14.61.14.32,0,.58-.08.75-.24s.27-.36.27-.62c0-.15-.03-.28-.1-.39-.07-.11-.16-.2-.29-.27-.13-.07-.42-.17-.85-.3-.39-.12-.66-.23-.83-.35-.16-.12-.29-.26-.38-.44s-.14-.38-.14-.61c0-.41.13-.74.39-.99.26-.26.62-.39,1.06-.39.3,0,.57.06.8.18.23.12.41.29.53.52.13.22.19.49.2.8l-.52.05c-.03-.33-.12-.57-.29-.72-.17-.16-.4-.24-.71-.24s-.54.07-.7.21-.24.32-.24.54c0,.2.06.36.18.47.12.11.38.22.8.34.41.11.69.21.85.29.25.13.44.3.57.5.13.21.19.46.19.75s-.07.55-.2.78-.32.42-.55.54c-.23.12-.51.18-.84.18-.51,0-.91-.15-1.21-.46-.3-.3-.46-.72-.47-1.24Z"></path>
    </g>
  </g>
</svg>
