<?xml version="1.0" encoding="UTF-8"?>
<svg xmlns="http://www.w3.org/2000/svg" id="Layer_1" version="1.1" viewBox="0 0 95.3 95.3">
  <defs>
    <style>
      .st0 {
        fill: #fff;
      }

      .st1 {
        fill: #333;
      }

      .st2 {
        fill: #ec1c24;
      }

      .st3 {
        fill: #ededed;
      }
    </style>
  </defs>
  <circle class="st2" cx="47.65" cy="47.65" r="29.52"></circle>
  <g>
    <g>
      <path class="st0" d="M27.91,47.17h-2.42v-9.37c.04-1.08.75-2.02,1.77-2.36.92-.3,1.93-.11,2.66.52l8,8.65c.4.25.57,0,.56-.25v-8.93h2.45v9.3c-.1.95-.71,1.77-1.59,2.15-.95.37-2,.37-3.24-.67l-7.5-8.12c-.2-.21-.71-.23-.72.18v8.9h.01Z"></path>
      <path class="st0" d="M42.51,35.44h2.45v8.41c0,.89.74.89,1.48.9h10.88c.54-.08.95-.53.97-1.08-.01-.57-.44-1.05-1.01-1.12h-7.09c-1.22.04-3.74-1.08-3.75-3.46,0-2.91,2.4-3.56,3.49-3.64h20.02v2.47h-5.01v9.26h-2.43v-9.26h-12.27c-1.16-.1-2.01,1.91-.09,2.2h7.53c1.13,0,3.01.99,3.02,3.41s-1.46,3.64-3.02,3.64h-11.13c-1.84,0-2.5-.41-3.15-1.03s-.7-.93-.9-2.16v-8.54h0Z"></path>
    </g>
    <g>
      <path class="st0" d="M27.35,55.2c-.44-.16-.76-.39-.97-.69s-.32-.65-.32-1.07c0-.62.22-1.15.67-1.58s1.05-.64,1.79-.64,1.35.22,1.81.65.69.97.69,1.59c0,.4-.1.75-.31,1.04s-.53.52-.95.68c.53.17.93.45,1.2.83s.41.84.41,1.37c0,.73-.26,1.35-.78,1.85s-1.2.75-2.05.75-1.53-.25-2.05-.75-.78-1.13-.78-1.88c0-.56.14-1.03.42-1.4s.69-.63,1.21-.77ZM26.8,57.38c0,.3.07.59.21.87.14.28.35.5.64.65s.58.23.91.23c.5,0,.92-.16,1.25-.49.33-.32.49-.74.49-1.24s-.17-.93-.51-1.26-.76-.5-1.27-.5-.91.16-1.23.49-.49.74-.49,1.23ZM27.14,53.41c0,.41.13.74.39,1s.6.39,1.02.39.74-.13,1-.38.39-.57.39-.94-.13-.71-.4-.98-.6-.4-1-.4-.74.13-1,.39-.4.57-.4.93Z"></path>
      <path class="st0" d="M32.84,55.62c0-1.02.1-1.83.31-2.45s.52-1.1.93-1.43.93-.5,1.56-.5c.46,0,.87.09,1.21.28s.63.45.86.8.4.78.53,1.28.19,1.18.19,2.03c0,1.01-.1,1.82-.31,2.44-.21.62-.52,1.1-.93,1.44s-.93.51-1.56.51c-.83,0-1.48-.3-1.95-.89-.57-.72-.85-1.88-.85-3.49ZM33.93,55.62c0,1.41.17,2.35.5,2.82.33.47.74.7,1.22.7s.89-.23,1.22-.7c.33-.47.5-1.41.5-2.81s-.17-2.35-.5-2.82-.74-.7-1.23-.7-.87.21-1.16.62c-.36.52-.54,1.49-.54,2.9Z"></path>
      <path class="st0" d="M39.96,55.62c0-1.02.1-1.83.31-2.45s.52-1.1.93-1.43.93-.5,1.56-.5c.46,0,.87.09,1.21.28s.63.45.86.8.4.78.53,1.28.19,1.18.19,2.03c0,1.01-.1,1.82-.31,2.44-.21.62-.52,1.1-.93,1.44s-.93.51-1.56.51c-.83,0-1.48-.3-1.95-.89-.57-.72-.85-1.88-.85-3.49ZM41.05,55.62c0,1.41.17,2.35.5,2.82.33.47.74.7,1.22.7s.89-.23,1.22-.7c.33-.47.5-1.41.5-2.81s-.17-2.35-.5-2.82-.74-.7-1.23-.7-.87.21-1.16.62c-.36.52-.54,1.49-.54,2.9Z"></path>
      <path class="st0" d="M46.96,57.28v-1.06h3.24v1.06h-3.24Z"></path>
      <path class="st0" d="M55.49,59.86h-1.05v-6.72c-.25.24-.59.48-1,.73s-.78.42-1.11.54v-1.02c.59-.28,1.11-.61,1.55-1.01s.75-.78.94-1.15h.68v8.63Z"></path>
      <path class="st0" d="M58.71,52.39v-1.01h5.56v.82c-.55.58-1.09,1.36-1.63,2.32s-.95,1.96-1.25,2.98c-.21.72-.35,1.51-.4,2.36h-1.08c.01-.68.14-1.49.4-2.45s.62-1.88,1.09-2.77.98-1.64,1.51-2.25h-4.21Z"></path>
      <path class="st0" d="M69.73,59.86h-1.05v-6.72c-.25.24-.59.48-1,.73s-.78.42-1.11.54v-1.02c.59-.28,1.11-.61,1.55-1.01s.75-.78.94-1.15h.68v8.63Z"></path>
    </g>
  </g>
  <g>
    <path class="st3" d="M47.65.15C21.42.15.15,21.42.15,47.65s21.27,47.5,47.5,47.5,47.5-21.27,47.5-47.5S73.88.15,47.65.15ZM47.65,80.42c-18.1,0-32.77-14.67-32.77-32.77S29.55,14.88,47.65,14.88s32.77,14.67,32.77,32.77-14.67,32.77-32.77,32.77Z"></path>
    <g>
      <path class="st1" d="M25.43,82.59l.9,1.17c-.62.52-1.25.79-1.87.82-.63.03-1.26-.18-1.89-.62-.78-.54-1.24-1.26-1.37-2.14-.13-.88.13-1.79.77-2.71.68-.98,1.46-1.56,2.34-1.75.88-.19,1.73,0,2.56.58.72.5,1.15,1.12,1.31,1.86.09.44.04.94-.15,1.5l-1.37-.54c.14-.35.17-.69.07-1.02s-.3-.6-.62-.82c-.44-.3-.9-.39-1.39-.27-.49.12-.98.54-1.46,1.23-.52.74-.75,1.37-.7,1.87.05.5.29.9.71,1.2.31.22.66.31,1.02.27.37-.04.75-.24,1.15-.61Z"></path>
      <path class="st1" d="M28.53,83.49c.29-.67.63-1.19,1.02-1.56.29-.27.63-.48,1-.64.37-.15.74-.23,1.1-.23.48,0,.99.12,1.53.35.97.42,1.62,1.05,1.94,1.9.32.85.26,1.81-.2,2.88-.46,1.06-1.1,1.77-1.94,2.12-.83.35-1.74.32-2.7-.09-.98-.42-1.63-1.05-1.95-1.9-.32-.84-.26-1.79.19-2.84ZM29.92,84.03c-.32.74-.39,1.38-.21,1.92.18.53.53.91,1.06,1.14.53.23,1.05.22,1.55-.01.5-.24.92-.73,1.25-1.5.32-.75.4-1.39.23-1.9s-.53-.89-1.08-1.12c-.55-.24-1.07-.24-1.57,0-.5.23-.91.73-1.23,1.48Z"></path>
      <path class="st1" d="M36.06,90.24l1.32-7.03,2.13.4.37,5.04,2.17-4.56,2.13.4-1.33,7.04-1.32-.25,1.04-5.54-2.44,5.27-1.37-.26-.35-5.8-1.04,5.54-1.32-.25Z"></path>
      <path class="st1" d="M45.72,91.68l-.12-7.16,2.32-.04c.88-.01,1.45.01,1.72.08.41.1.76.33,1.04.68.28.36.43.82.44,1.39,0,.44-.07.81-.22,1.11-.15.3-.35.54-.6.72-.24.17-.49.29-.74.35-.34.07-.84.12-1.5.13h-.94s.04,2.71.04,2.71l-1.44.02ZM47.07,85.71l.03,2.03h.79c.57-.02.95-.07,1.14-.14.19-.08.34-.2.45-.36s.16-.35.15-.56c0-.26-.08-.47-.24-.64-.16-.17-.35-.27-.59-.31-.17-.03-.52-.04-1.04-.03h-.7Z"></path>
      <path class="st1" d="M59.27,90.24l-1.55.29-.91-1.48-2.81.52-.28,1.71-1.51.28,1.43-7.55,1.5-.28,4.13,6.51ZM56.14,87.95l-1.46-2.43-.46,2.79,1.92-.36Z"></path>
      <path class="st1" d="M61.37,89.56l-2.67-6.64,1.31-.52,4.5,3.34-1.78-4.44,1.25-.5,2.67,6.64-1.35.54-4.42-3.26,1.74,4.33-1.25.5Z"></path>
      <path class="st1" d="M70.78,85.09l-1.63-2.54-4.45-2.07,1.43-.92,2.95,1.47-.14-3.27,1.4-.9.03,4.92,1.62,2.53-1.21.78Z"></path>
    </g>
    <g>
      <path class="st1" d="M10.43,37.65l.94-1.67c.94.48,1.58,1.09,1.93,1.82.35.74.43,1.59.22,2.57-.25,1.21-.87,2.12-1.86,2.73-.99.61-2.2.76-3.63.47-1.52-.31-2.61-.95-3.29-1.91-.68-.96-.88-2.07-.62-3.35.23-1.11.75-1.95,1.55-2.51.48-.33,1.1-.53,1.87-.58l.06,1.91c-.49,0-.91.16-1.26.44-.34.29-.57.67-.67,1.16-.14.68-.01,1.27.39,1.79.4.52,1.14.89,2.23,1.12,1.15.24,2.02.2,2.59-.11.57-.31.93-.8,1.07-1.46.1-.49.03-.94-.2-1.36s-.67-.77-1.31-1.06Z"></path>
      <path class="st1" d="M15.66,33.29l-3.53-1.7-6.34.73.96-1.98,4.27-.37-2.38-3.53.94-1.95,3.38,5.43,3.52,1.7-.81,1.69Z"></path>
      <path class="st1" d="M11.14,22.18l2.38-2.86c.47-.57.85-.97,1.12-1.21.28-.24.58-.41.92-.5.33-.1.68-.11,1.05-.05s.71.22,1.02.48c.33.28.57.62.7,1.04.13.41.14.83.02,1.26.49-.33.98-.49,1.49-.47.5.02.96.2,1.37.55.33.27.58.61.76,1.02.18.41.26.82.22,1.23-.03.42-.19.83-.47,1.25-.17.26-.64.86-1.4,1.78l-2.02,2.44-7.16-5.95ZM13.54,21.73l1.65,1.38.79-.95c.47-.56.75-.92.85-1.07.18-.27.25-.54.23-.8s-.15-.48-.38-.68c-.22-.18-.45-.27-.69-.27-.24,0-.47.12-.7.33-.14.13-.49.53-1.05,1.21l-.69.83ZM16.38,24.1l1.91,1.59,1.11-1.34c.43-.52.69-.86.78-1.03.14-.25.19-.5.15-.76-.04-.26-.19-.5-.44-.71-.21-.18-.44-.28-.68-.3-.24-.02-.47.04-.7.18-.23.14-.62.54-1.17,1.2l-.97,1.17Z"></path>
      <path class="st1" d="M24.18,21.4l-5.51-7.5,5.56-4.09.93,1.27-4.05,2.97,1.22,1.66,3.76-2.77.93,1.26-3.76,2.77,1.5,2.04,4.19-3.08.93,1.26-5.7,4.19Z"></path>
      <path class="st1" d="M30.89,16.64l-3.53-8.61,3.66-1.5c.92-.38,1.62-.57,2.1-.59.48-.02.93.12,1.34.41.41.29.72.69.93,1.2.27.65.29,1.26.09,1.83s-.67,1.07-1.38,1.49c.47.06.88.18,1.23.34.35.16.87.49,1.56.99l1.74,1.25-2.08.85-2.03-1.36c-.72-.49-1.2-.78-1.44-.89-.24-.11-.46-.15-.67-.14-.21.01-.52.1-.91.26l-.35.14,1.48,3.59-1.74.71ZM30.59,10.96l1.29-.53c.83-.34,1.34-.59,1.52-.75s.29-.34.34-.56c.05-.22.02-.46-.09-.72-.12-.29-.29-.49-.52-.61-.23-.11-.49-.14-.79-.07-.15.04-.58.2-1.28.49l-1.36.56.9,2.18Z"></path>
      <path class="st1" d="M38.33,10.53l1.78-.44c.2.59.48,1.01.86,1.24.37.24.84.31,1.41.23.6-.09,1.03-.28,1.3-.58s.38-.62.33-.96c-.03-.22-.12-.39-.27-.53s-.39-.24-.73-.3c-.23-.04-.74-.11-1.55-.19-1.03-.1-1.78-.31-2.23-.61-.64-.43-1.01-1-1.12-1.73-.07-.47,0-.93.21-1.37.21-.45.55-.81,1.01-1.1.47-.29,1.06-.48,1.77-.58,1.16-.17,2.06-.04,2.72.38.66.42,1.06,1.05,1.21,1.9l-1.85.35c-.15-.46-.37-.78-.66-.95-.29-.17-.7-.22-1.22-.14-.54.08-.95.25-1.22.52-.18.17-.25.38-.21.61.03.22.15.39.36.52.26.16.86.29,1.8.37.94.08,1.64.21,2.1.37.47.17.85.43,1.15.79s.5.83.58,1.41c.08.53,0,1.04-.23,1.55-.23.5-.59.91-1.1,1.21-.5.3-1.16.51-1.96.63-1.16.17-2.1.03-2.8-.42-.7-.45-1.19-1.18-1.46-2.19Z"></path>
      <path class="st1" d="M47.41,12.44l.82-9.27,6.87.61-.14,1.57-5-.44-.18,2.05,4.65.41-.14,1.56-4.65-.41-.22,2.52,5.18.46-.14,1.56-7.05-.63Z"></path>
      <path class="st1" d="M62.35,12.03l1.53,1.14c-.6.87-1.28,1.43-2.06,1.68-.78.25-1.63.22-2.58-.11-1.17-.41-1.99-1.14-2.46-2.2-.47-1.06-.47-2.28,0-3.66.51-1.46,1.28-2.47,2.32-3.02,1.04-.55,2.17-.61,3.4-.18,1.08.37,1.84.99,2.29,1.86.27.51.38,1.16.34,1.93l-1.9-.19c.05-.49-.04-.93-.28-1.31s-.59-.65-1.06-.81c-.65-.23-1.26-.18-1.83.15-.57.33-1.03,1.01-1.4,2.06-.39,1.11-.46,1.97-.22,2.58.24.61.67,1.03,1.31,1.25.47.16.93.15,1.37-.03.44-.18.85-.57,1.22-1.16Z"></path>
      <path class="st1" d="M69.1,8.65l1.56,1.04-2.8,4.19c-.44.67-.71,1.11-.8,1.33-.14.36-.15.72-.03,1.08.12.36.4.69.84.98.44.3.84.43,1.18.4.35-.03.63-.16.85-.4.22-.23.54-.66.95-1.27l2.86-4.28,1.56,1.04-2.71,4.07c-.62.93-1.1,1.56-1.44,1.89-.34.33-.71.55-1.12.66-.4.11-.85.12-1.33.02-.49-.1-1.03-.35-1.65-.76-.74-.49-1.24-.95-1.51-1.38-.27-.43-.42-.85-.46-1.27-.04-.42,0-.8.13-1.15.19-.51.58-1.2,1.16-2.07l2.75-4.13Z"></path>
      <path class="st1" d="M71.27,21.5l6.93-6.21,2.64,2.95c.66.74,1.08,1.33,1.26,1.78s.2.91.06,1.4-.41.91-.82,1.28c-.52.47-1.09.7-1.7.69-.61,0-1.24-.27-1.87-.8.09.46.12.88.09,1.27-.04.39-.17.99-.41,1.8l-.59,2.06-1.5-1.67.6-2.36c.22-.84.34-1.39.36-1.65.02-.26,0-.48-.09-.68-.08-.19-.27-.45-.55-.77l-.25-.28-2.89,2.59-1.25-1.4ZM76.52,19.31l.93,1.04c.6.67,1,1.07,1.21,1.18.21.12.42.16.64.13.22-.03.44-.14.65-.32.23-.21.37-.44.4-.69s-.04-.51-.2-.77c-.09-.13-.38-.48-.89-1.04l-.98-1.09-1.76,1.57Z"></path>
      <path class="st1" d="M76.98,28.45l7.91-4.9.99,1.6-7.91,4.9-.99-1.6Z"></path>
      <path class="st1" d="M79.62,33.25l7.13-2.99-1.07-2.55,1.45-.61,2.86,6.82-1.45.61-1.07-2.54-7.13,2.99-.73-1.73Z"></path>
      <path class="st1" d="M82.02,40.73l3.86-.66,4.73-4.27.37,2.17-3.26,2.78,3.99,1.49.37,2.13-5.9-2.46-3.85.66-.32-1.85Z"></path>
    </g>
  </g>
</svg>
